<?xml version="1.0" encoding="UTF-8" standalone="no"?>
<svg xmlns="http://www.w3.org/2000/svg" xmlns:xlink="http://www.w3.org/1999/xlink" clip-rule="evenodd" stroke-miterlimit="4.00" ><!--viewBox="0 0 2383 3370"-->

<g transform="matrix(1.00, 0.00, -0.00, -1.00, 0.0, 3370.0)">
<g clip-path="url(#clip-1)">
<path d="M 92.7 3282.4 L 92.7 3282.4 L 92.7 3166.2 L 103.2 3166.2 L 103.2 3186.9 L 141.2 3186.9 L 141.2 3166.2 L 152.4 3166.2 L 152.4 3185.1 L 152.4 3197.4 L 103.2 3197.4 L 103.2 3282.4 L 92.7 3282.4 Z M 92.7 3282.4 " fill="#1D1D1B"></path>
<path d="M 111.0 3281.1 L 111.0 3281.1 L 111.0 3267.9 L 111.0 3204.2 L 152.5 3204.2 L 152.5 3215.6 L 121.4 3215.6 L 121.4 3269.7 L 152.5 3269.7 L 152.5 3281.1 L 111.0 3281.1 Z M 111.0 3281.1 " fill="#1D1D1B"></path>
<path d="M 129.8 3263.4 L 129.8 3263.4 L 129.8 3222.1 L 152.4 3222.1 L 152.4 3233.3 L 140.0 3233.3 L 140.0 3252.0 L 152.4 3252.0 L 152.4 3263.4 L 129.8 3263.4 Z M 129.8 3263.4 " fill="#1D1D1B"></path>
<path d="M 214.0 3254.4 L 214.0 3254.4 L 214.0 3244.2 L 205.8 3244.2 L 205.8 3254.4 L 201.6 3254.4 L 201.6 3230.0 L 205.8 3230.0 L 205.8 3240.7 L 214.0 3240.7 L 214.0 3230.0 L 218.1 3230.0 L 218.1 3254.4 L 214.0 3254.4 Z M 214.0 3254.4 " fill="#1D1D1B"></path>
<path d="M 223.2 3246.6 L 223.2 3246.6 L 223.2 3235.3 C 223.2 3232.3 224.6 3229.6 228.2 3229.6 C 230.9 3229.6 232.5 3230.8 233.6 3232.2 L 233.9 3230.0 L 237.5 3230.0 L 237.3 3234.7 L 237.3 3246.6 L 233.2 3246.6 L 233.2 3235.1 C 232.7 3234.2 231.7 3233.2 229.8 3233.2 C 227.9 3233.2 227.2 3234.3 227.2 3235.9 L 227.2 3246.6 L 223.2 3246.6 Z M 223.2 3246.6 " fill="#1D1D1B"></path>
<path d="M 265.1 3230.0 L 265.1 3230.0 L 265.1 3241.6 C 265.1 3244.7 263.6 3246.9 260.3 3246.9 C 257.8 3246.9 256.2 3245.8 255.2 3244.4 C 254.5 3246.0 253.2 3246.9 251.0 3246.9 C 248.6 3246.9 247.0 3245.9 246.0 3244.5 L 245.7 3246.6 L 242.1 3246.6 L 242.4 3241.9 L 242.4 3230.0 L 246.4 3230.0 L 246.4 3241.6 C 246.9 3242.4 247.7 3243.5 249.4 3243.5 C 250.9 3243.5 251.8 3242.6 251.8 3241.0 L 251.8 3230.0 L 255.7 3230.0 L 255.7 3241.6 C 256.3 3242.4 257.1 3243.5 258.8 3243.5 C 260.3 3243.5 261.1 3242.6 261.1 3241.0 L 261.1 3230.0 L 265.1 3230.0 Z M 265.1 3230.0 " fill="#1D1D1B"></path>
<path d="M 279.9 3230.0 L 279.9 3230.0 L 283.5 3230.0 L 283.2 3234.7 L 283.2 3240.7 C 283.2 3244.5 281.7 3246.9 276.6 3246.9 C 271.4 3246.9 269.9 3244.1 269.9 3241.3 L 269.9 3241.1 L 273.8 3241.1 C 273.8 3242.6 274.3 3243.8 276.5 3243.8 C 278.6 3243.8 279.2 3242.8 279.2 3240.7 L 279.2 3240.7 L 275.0 3240.0 C 271.9 3239.5 269.3 3238.4 269.3 3234.8 L 269.3 3234.5 C 269.3 3231.8 270.8 3229.6 274.3 3229.6 C 276.7 3229.6 278.5 3230.6 279.6 3232.0 L 279.9 3230.0 Z M 275.6 3232.9 L 275.6 3232.9 C 274.1 3232.9 273.4 3233.9 273.4 3235.0 L 273.4 3235.2 C 273.4 3236.5 274.1 3237.3 275.8 3237.6 L 279.2 3238.2 L 279.2 3234.7 C 278.7 3233.9 277.6 3232.9 275.6 3232.9 Z M 275.6 3232.9 " fill="#1D1D1B"></path>
<path d="M 302.3 3230.0 L 302.3 3230.0 L 302.3 3241.3 C 302.3 3244.4 300.9 3246.9 297.3 3246.9 C 294.6 3246.9 293.0 3245.9 291.9 3244.4 L 291.6 3246.6 L 288.0 3246.6 L 288.3 3241.9 L 288.3 3230.0 L 292.3 3230.0 L 292.3 3241.5 C 292.8 3242.3 293.8 3243.5 295.7 3243.5 C 297.6 3243.5 298.3 3242.3 298.3 3240.7 L 298.3 3230.0 L 302.3 3230.0 Z M 302.3 3230.0 " fill="#1D1D1B"></path>
<path d="M 306.7 3239.1 L 306.7 3239.1 L 314.9 3239.1 L 314.9 3242.7 L 306.7 3242.7 L 306.7 3239.1 Z M 306.7 3239.1 " fill="#1D1D1B"></path>
<path d="M 323.3 3241.6 L 323.3 3241.6 L 323.3 3242.8 C 323.3 3248.3 324.5 3251.1 327.8 3251.1 L 328.1 3251.1 C 331.1 3251.1 332.1 3249.1 332.1 3245.2 L 336.3 3245.2 L 336.3 3246.3 C 336.3 3252.2 333.5 3254.7 327.9 3254.7 C 321.9 3254.7 319.1 3251.3 319.1 3242.8 L 319.1 3241.6 C 319.1 3233.2 321.9 3229.6 327.9 3229.6 C 333.5 3229.6 336.3 3232.2 336.3 3237.9 L 336.3 3238.2 L 332.1 3238.2 C 332.1 3235.1 331.0 3233.2 328.1 3233.2 L 327.8 3233.2 C 324.4 3233.2 323.3 3236.0 323.3 3241.6 Z M 323.3 3241.6 " fill="#1D1D1B"></path>
<path d="M 355.1 3236.8 L 355.1 3236.8 L 355.1 3238.7 C 355.1 3243.4 352.8 3246.9 347.8 3246.9 C 342.6 3246.9 340.2 3243.4 340.2 3238.7 L 340.2 3237.9 C 340.2 3233.2 342.6 3229.6 347.9 3229.6 C 352.6 3229.6 355.1 3232.3 355.1 3235.2 L 355.1 3235.4 L 351.3 3235.4 C 351.3 3234.1 350.2 3232.8 347.9 3232.8 C 345.6 3232.8 344.4 3234.1 344.2 3236.8 L 355.1 3236.8 Z M 347.7 3243.8 L 347.7 3243.8 C 349.9 3243.8 350.9 3242.4 351.1 3239.8 L 344.2 3239.8 C 344.4 3242.4 345.5 3243.8 347.7 3243.8 Z M 347.7 3243.8 " fill="#1D1D1B"></path>
<path d="M 373.6 3230.0 L 373.6 3230.0 L 373.6 3241.3 C 373.6 3244.4 372.2 3246.9 368.6 3246.9 C 365.9 3246.9 364.3 3245.9 363.2 3244.4 L 362.8 3246.6 L 359.3 3246.6 L 359.6 3241.9 L 359.6 3230.0 L 363.6 3230.0 L 363.6 3241.5 C 364.1 3242.3 365.1 3243.5 367.0 3243.5 C 368.9 3243.5 369.6 3242.3 369.6 3240.7 L 369.6 3230.0 L 373.6 3230.0 Z M 373.6 3230.0 " fill="#1D1D1B"></path>
<path d="M 383.7 3246.6 L 383.7 3246.6 L 383.7 3251.3 L 379.6 3251.3 L 379.6 3246.6 L 377.1 3246.6 L 377.1 3243.0 L 379.6 3243.0 L 379.6 3235.4 C 379.6 3231.1 382.0 3229.6 385.4 3229.6 C 386.8 3229.6 387.6 3229.9 387.9 3230.0 L 387.9 3233.4 C 387.7 3233.3 386.9 3233.2 386.3 3233.2 C 384.6 3233.2 383.7 3233.6 383.7 3235.9 L 383.7 3243.0 L 388.2 3243.0 L 388.2 3246.6 L 383.7 3246.6 Z M 383.7 3246.6 " fill="#1D1D1B"></path>
<path d="M 406.9 3236.8 L 406.9 3236.8 L 406.9 3238.7 C 406.9 3243.4 404.7 3246.9 399.7 3246.9 C 394.5 3246.9 392.1 3243.4 392.1 3238.7 L 392.1 3237.9 C 392.1 3233.2 394.5 3229.6 399.8 3229.6 C 404.5 3229.6 406.9 3232.3 406.9 3235.2 L 406.9 3235.4 L 403.2 3235.4 C 403.2 3234.1 402.0 3232.8 399.8 3232.8 C 397.6 3232.8 396.3 3234.1 396.1 3236.8 L 406.9 3236.8 Z M 399.6 3243.8 L 399.6 3243.8 C 401.8 3243.8 402.8 3242.4 402.9 3239.8 L 396.1 3239.8 C 396.3 3242.4 397.4 3243.8 399.6 3243.8 Z M 399.6 3243.8 " fill="#1D1D1B"></path>
<path d="M 419.6 3246.9 L 419.6 3246.9 C 417.5 3246.9 416.0 3246.0 415.1 3244.5 L 414.8 3246.6 L 411.2 3246.6 L 411.4 3241.9 L 411.4 3230.0 L 415.5 3230.0 L 415.5 3241.3 C 416.0 3242.0 417.2 3243.0 419.3 3243.0 L 420.0 3243.0 L 420.0 3246.9 C 419.9 3246.9 419.7 3246.9 419.6 3246.9 Z M 419.6 3246.9 " fill="#1D1D1B"></path>
<path d="M 437.9 3236.8 L 437.9 3236.8 L 437.9 3238.7 C 437.9 3243.4 435.6 3246.9 430.5 3246.9 C 425.4 3246.9 423.0 3243.4 423.0 3238.7 L 423.0 3237.9 C 423.0 3233.2 425.4 3229.6 430.7 3229.6 C 435.4 3229.6 437.9 3232.3 437.9 3235.2 L 437.9 3235.4 L 434.1 3235.4 C 434.1 3234.1 432.9 3232.8 430.7 3232.8 C 428.4 3232.8 427.1 3234.1 427.0 3236.8 L 437.9 3236.8 Z M 430.5 3243.8 L 430.5 3243.8 C 432.6 3243.8 433.7 3242.4 433.8 3239.8 L 427.0 3239.8 C 427.1 3242.4 428.3 3243.8 430.5 3243.8 Z M 430.5 3243.8 " fill="#1D1D1B"></path>
<path d="M 448.0 3246.9 L 448.0 3246.9 C 443.5 3246.9 441.9 3243.5 441.9 3238.8 L 441.9 3237.8 C 441.9 3233.1 443.5 3229.6 448.0 3229.6 C 450.4 3229.6 451.9 3230.7 452.8 3232.1 L 453.1 3230.0 L 456.7 3230.0 L 456.4 3234.7 L 456.4 3255.0 L 452.4 3255.0 L 452.4 3245.0 C 451.4 3246.1 450.1 3246.9 448.0 3246.9 Z M 452.4 3235.1 L 452.4 3235.1 C 451.9 3234.2 450.9 3233.2 449.2 3233.2 C 446.8 3233.2 445.9 3234.9 445.9 3237.8 L 445.9 3238.8 C 445.9 3241.7 446.8 3243.5 449.2 3243.5 C 450.9 3243.5 451.9 3242.3 452.4 3241.5 L 452.4 3235.1 Z M 452.4 3235.1 " fill="#1D1D1B"></path>
<path d="M 473.1 3241.6 L 473.1 3241.6 L 473.1 3242.8 C 473.1 3248.3 474.2 3251.1 477.6 3251.1 L 477.9 3251.1 C 480.9 3251.1 481.8 3249.1 481.8 3245.2 L 486.0 3245.2 L 486.0 3246.3 C 486.0 3252.2 483.3 3254.7 477.7 3254.7 C 471.6 3254.7 468.8 3251.3 468.8 3242.8 L 468.8 3241.6 C 468.8 3233.2 471.6 3229.6 477.7 3229.6 C 483.3 3229.6 486.0 3232.2 486.0 3237.9 L 486.0 3238.2 L 481.8 3238.2 C 481.8 3235.1 480.8 3233.2 477.9 3233.2 L 477.6 3233.2 C 474.2 3233.2 473.1 3236.0 473.1 3241.6 Z M 473.1 3241.6 " fill="#1D1D1B"></path>
<path d="M 497.5 3229.6 L 497.5 3229.6 C 502.6 3229.6 504.8 3233.1 504.8 3237.8 L 504.8 3238.8 C 504.8 3243.5 502.6 3246.9 497.5 3246.9 C 492.3 3246.9 490.0 3243.5 490.0 3238.8 L 490.0 3237.8 C 490.0 3233.1 492.3 3229.6 497.5 3229.6 Z M 497.5 3233.2 L 497.5 3233.2 C 495.1 3233.2 494.0 3235.0 494.0 3237.8 L 494.0 3238.8 C 494.0 3241.6 495.1 3243.5 497.5 3243.5 C 499.8 3243.5 500.8 3241.6 500.8 3238.8 L 500.8 3237.8 C 500.8 3235.0 499.8 3233.2 497.5 3233.2 Z M 497.5 3233.2 " fill="#1D1D1B"></path>
<path d="M 532.1 3230.0 L 532.1 3230.0 L 532.1 3241.6 C 532.1 3244.7 530.6 3246.9 527.3 3246.9 C 524.8 3246.9 523.1 3245.8 522.2 3244.4 C 521.5 3246.0 520.1 3246.9 518.0 3246.9 C 515.6 3246.9 514.0 3245.9 513.0 3244.5 L 512.6 3246.6 L 509.1 3246.6 L 509.3 3241.9 L 509.3 3230.0 L 513.4 3230.0 L 513.4 3241.6 C 513.8 3242.4 514.7 3243.5 516.4 3243.5 C 517.9 3243.5 518.7 3242.6 518.7 3241.0 L 518.7 3230.0 L 522.7 3230.0 L 522.7 3241.6 C 523.2 3242.4 524.1 3243.5 525.8 3243.5 C 527.3 3243.5 528.1 3242.6 528.1 3241.0 L 528.1 3230.0 L 532.1 3230.0 Z M 532.1 3230.0 " fill="#1D1D1B"></path>
<path d="M 545.4 3229.6 L 545.4 3229.6 C 549.9 3229.6 551.5 3233.1 551.5 3237.8 L 551.5 3238.8 C 551.5 3243.5 549.9 3246.9 545.4 3246.9 C 543.1 3246.9 541.5 3245.9 540.6 3244.5 L 540.3 3246.6 L 536.7 3246.6 L 537.0 3241.9 L 537.0 3223.8 L 541.0 3223.8 L 541.0 3231.6 C 542.0 3230.4 543.4 3229.6 545.4 3229.6 Z M 541.0 3241.5 L 541.0 3241.5 C 541.5 3242.3 542.6 3243.5 544.3 3243.5 C 546.6 3243.5 547.5 3241.7 547.5 3238.8 L 547.5 3237.8 C 547.5 3234.9 546.6 3233.2 544.3 3233.2 C 542.6 3233.2 541.5 3234.2 541.0 3235.1 L 541.0 3241.5 Z M 541.0 3241.5 " fill="#1D1D1B"></path>
<path d="M 555.9 3246.6 L 555.9 3246.6 L 555.9 3235.3 C 555.9 3232.3 557.3 3229.6 560.9 3229.6 C 563.5 3229.6 565.2 3230.8 566.3 3232.2 L 566.6 3230.0 L 570.2 3230.0 L 569.9 3234.7 L 569.9 3246.6 L 565.9 3246.6 L 565.9 3235.1 C 565.4 3234.2 564.3 3233.2 562.5 3233.2 C 560.6 3233.2 559.9 3234.3 559.9 3235.9 L 559.9 3246.6 L 555.9 3246.6 Z M 555.9 3246.6 " fill="#1D1D1B"></path>
<path d="M 580.5 3246.6 L 580.5 3246.6 L 580.5 3251.3 L 576.5 3251.3 L 576.5 3246.6 L 573.9 3246.6 L 573.9 3243.0 L 576.5 3243.0 L 576.5 3235.4 C 576.5 3231.1 578.8 3229.6 582.2 3229.6 C 583.6 3229.6 584.5 3229.9 584.7 3230.0 L 584.7 3233.4 C 584.5 3233.3 583.8 3233.2 583.2 3233.2 C 581.5 3233.2 580.5 3233.6 580.5 3235.9 L 580.5 3243.0 L 585.0 3243.0 L 585.0 3246.6 L 580.5 3246.6 Z M 580.5 3246.6 " fill="#1D1D1B"></path>
<path d="M 589.7 3230.0 L 589.7 3230.0 L 593.8 3230.0 L 593.8 3246.6 L 589.7 3246.6 L 589.7 3230.0 Z M 593.9 3253.8 L 593.9 3253.8 L 589.5 3253.8 L 589.5 3249.4 L 593.9 3249.4 L 593.9 3253.8 Z M 593.9 3253.8 " fill="#1D1D1B"></path>
<path d="M 613.0 3230.0 L 613.0 3230.0 L 613.0 3241.3 C 613.0 3244.4 611.5 3246.9 607.9 3246.9 C 605.3 3246.9 603.6 3245.9 602.6 3244.4 L 602.2 3246.6 L 598.6 3246.6 L 598.9 3241.9 L 598.9 3230.0 L 602.9 3230.0 L 602.9 3241.5 C 603.4 3242.3 604.5 3243.5 606.4 3243.5 C 608.2 3243.5 608.9 3242.3 608.9 3240.7 L 608.9 3230.0 L 613.0 3230.0 Z M 613.0 3230.0 " fill="#1D1D1B"></path>
<path d="M 627.8 3230.3 L 627.8 3230.3 C 627.8 3227.7 626.8 3226.7 624.5 3226.7 C 622.1 3226.7 621.3 3228.0 621.3 3230.0 L 617.6 3230.0 L 617.6 3229.5 C 617.6 3226.1 619.3 3223.4 624.6 3223.4 C 629.6 3223.4 631.8 3225.9 631.8 3230.2 L 631.8 3241.9 L 632.1 3246.6 L 628.5 3246.6 L 628.2 3244.5 C 627.3 3246.0 625.8 3246.9 623.4 3246.9 C 619.0 3246.9 617.3 3243.5 617.3 3239.2 L 617.3 3238.4 C 617.3 3233.9 619.0 3230.7 623.4 3230.7 C 625.5 3230.7 626.8 3231.4 627.8 3232.6 L 627.8 3230.3 Z M 627.8 3236.0 L 627.8 3236.0 C 627.3 3235.4 626.3 3234.2 624.5 3234.2 C 622.4 3234.2 621.2 3235.7 621.2 3238.4 L 621.2 3239.2 C 621.2 3241.7 622.4 3243.5 624.5 3243.5 C 626.3 3243.5 627.3 3242.3 627.8 3241.5 L 627.8 3236.0 Z M 627.8 3236.0 " fill="#1D1D1B"></path>
<path d="M 203.2 3197.3 L 203.2 3197.3 L 206.7 3197.3 C 207.0 3197.3 207.3 3197.3 207.6 3197.4 L 210.5 3189.7 L 212.4 3189.7 L 209.2 3197.7 C 211.0 3198.3 212.4 3199.7 212.4 3202.7 L 212.4 3203.1 C 212.4 3207.5 209.4 3208.5 206.7 3208.5 L 201.5 3208.5 L 201.5 3189.7 L 203.2 3189.7 L 203.2 3197.3 Z M 203.2 3198.9 L 203.2 3198.9 L 203.2 3206.9 L 206.8 3206.9 C 208.3 3206.9 210.7 3206.3 210.7 3203.1 L 210.7 3202.8 C 210.7 3199.5 208.3 3198.9 206.8 3198.9 L 203.2 3198.9 Z M 203.2 3198.9 " fill="#1D1D1B"></path>
<path d="M 216.7 3208.5 L 216.7 3208.5 L 216.7 3189.7 L 227.2 3189.7 L 227.2 3191.3 L 218.5 3191.3 L 218.5 3198.5 L 226.0 3198.5 L 226.0 3200.0 L 218.5 3200.0 L 218.5 3206.9 L 227.2 3206.9 L 227.2 3208.5 L 216.7 3208.5 Z M 216.7 3208.5 " fill="#1D1D1B"></path>
<path d="M 236.3 3198.6 L 236.3 3198.6 C 239.5 3198.2 240.9 3197.0 240.9 3194.8 L 240.9 3194.6 C 240.9 3192.3 239.2 3191.0 236.7 3191.0 L 236.5 3191.0 C 233.9 3191.0 232.2 3192.5 232.2 3195.8 L 230.5 3195.8 L 230.5 3195.6 C 230.5 3191.7 232.6 3189.5 236.6 3189.5 C 240.3 3189.5 242.7 3191.4 242.7 3194.7 L 242.7 3195.0 C 242.7 3197.8 241.0 3199.5 237.0 3200.1 C 233.5 3200.6 232.4 3201.8 232.4 3203.7 L 232.4 3204.0 C 232.4 3205.9 234.2 3207.2 236.5 3207.2 L 236.7 3207.2 C 239.5 3207.2 240.7 3205.7 240.7 3202.2 L 242.4 3202.2 L 242.4 3202.7 C 242.4 3206.6 240.7 3208.7 236.6 3208.7 C 233.0 3208.7 230.7 3206.8 230.7 3203.7 L 230.7 3203.5 C 230.7 3201.0 232.2 3199.1 236.3 3198.6 Z M 236.3 3198.6 " fill="#1D1D1B"></path>
<path d="M 246.8 3208.5 L 246.8 3208.5 L 246.8 3189.7 L 257.2 3189.7 L 257.2 3191.3 L 248.5 3191.3 L 248.5 3198.5 L 256.0 3198.5 L 256.0 3200.0 L 248.5 3200.0 L 248.5 3206.9 L 257.2 3206.9 L 257.2 3208.5 L 246.8 3208.5 Z M 246.8 3208.5 " fill="#1D1D1B"></path>
<path d="M 265.5 3208.7 L 265.5 3208.7 L 260.1 3189.7 L 262.0 3189.7 L 263.3 3194.5 L 270.2 3194.5 L 271.5 3189.7 L 273.4 3189.7 L 268.0 3208.7 L 265.5 3208.7 Z M 266.7 3206.8 L 266.7 3206.8 L 269.7 3196.1 L 263.8 3196.1 L 266.7 3206.8 Z M 266.7 3206.8 " fill="#1D1D1B"></path>
<path d="M 278.8 3197.3 L 278.8 3197.3 L 282.2 3197.3 C 282.5 3197.3 282.9 3197.3 283.2 3197.4 L 286.1 3189.7 L 288.0 3189.7 L 284.7 3197.7 C 286.5 3198.3 288.0 3199.7 288.0 3202.7 L 288.0 3203.1 C 288.0 3207.5 285.0 3208.5 282.2 3208.5 L 277.1 3208.5 L 277.1 3189.7 L 278.8 3189.7 L 278.8 3197.3 Z M 278.8 3198.9 L 278.8 3198.9 L 278.8 3206.9 L 282.3 3206.9 C 283.9 3206.9 286.2 3206.3 286.2 3203.1 L 286.2 3202.8 C 286.2 3199.5 283.9 3198.9 282.3 3198.9 L 278.8 3198.9 Z M 278.8 3198.9 " fill="#1D1D1B"></path>
<path d="M 293.4 3198.6 L 293.4 3198.6 L 293.4 3199.6 C 293.4 3205.0 294.9 3207.2 298.0 3207.2 L 298.2 3207.2 C 301.0 3207.2 302.2 3205.6 302.2 3201.6 L 304.0 3201.6 L 304.0 3202.3 C 304.0 3206.5 302.0 3208.7 298.0 3208.7 C 293.7 3208.7 291.7 3206.1 291.7 3199.6 L 291.7 3198.6 C 291.7 3192.1 293.7 3189.5 298.0 3189.5 C 302.0 3189.5 304.0 3191.6 304.0 3195.6 L 304.0 3195.8 L 302.2 3195.8 C 302.2 3192.7 301.0 3191.0 298.2 3191.0 L 298.0 3191.0 C 294.9 3191.0 293.4 3193.2 293.4 3198.6 Z M 293.4 3198.6 " fill="#1D1D1B"></path>
<path d="M 318.2 3208.5 L 318.2 3208.5 L 318.2 3200.0 L 309.9 3200.0 L 309.9 3208.5 L 308.2 3208.5 L 308.2 3189.7 L 309.9 3189.7 L 309.9 3198.5 L 318.2 3198.5 L 318.2 3189.7 L 319.9 3189.7 L 319.9 3208.5 L 318.2 3208.5 Z M 318.2 3208.5 " fill="#1D1D1B"></path>
<path d="M 337.1 3189.5 L 337.1 3189.5 C 340.1 3189.5 341.8 3190.5 342.8 3191.6 L 342.8 3199.0 L 337.9 3199.0 L 337.9 3197.4 L 341.1 3197.4 L 341.1 3192.4 C 340.4 3191.7 339.1 3191.0 337.2 3191.0 L 337.1 3191.0 C 333.6 3191.0 332.1 3193.2 332.1 3198.6 L 332.1 3199.6 C 332.1 3205.0 333.7 3207.2 336.9 3207.2 L 337.0 3207.2 C 339.9 3207.2 341.1 3205.6 341.1 3201.6 L 342.8 3201.6 L 342.8 3202.3 C 342.8 3206.5 340.8 3208.7 336.9 3208.7 C 332.6 3208.7 330.3 3206.1 330.3 3199.6 L 330.3 3198.6 C 330.3 3192.1 332.6 3189.5 337.1 3189.5 Z M 337.1 3189.5 " fill="#1D1D1B"></path>
<path d="M 349.3 3197.3 L 349.3 3197.3 L 352.6 3197.3 C 352.9 3197.3 353.2 3197.3 353.5 3197.4 L 356.5 3189.7 L 358.4 3189.7 L 355.2 3197.7 C 356.9 3198.3 358.4 3199.7 358.4 3202.7 L 358.4 3203.1 C 358.4 3207.5 355.3 3208.5 352.6 3208.5 L 347.5 3208.5 L 347.5 3189.7 L 349.3 3189.7 L 349.3 3197.3 Z M 349.3 3198.9 L 349.3 3198.9 L 349.3 3206.9 L 352.7 3206.9 C 354.3 3206.9 356.6 3206.3 356.6 3203.1 L 356.6 3202.8 C 356.6 3199.5 354.3 3198.9 352.7 3198.9 L 349.3 3198.9 Z M 349.3 3198.9 " fill="#1D1D1B"></path>
<path d="M 368.5 3189.5 L 368.5 3189.5 C 372.8 3189.5 374.9 3192.1 374.9 3198.6 L 374.9 3199.6 C 374.9 3206.1 372.8 3208.7 368.5 3208.7 C 364.2 3208.7 362.1 3206.1 362.1 3199.6 L 362.1 3198.6 C 362.1 3192.1 364.2 3189.5 368.5 3189.5 Z M 368.4 3191.0 L 368.4 3191.0 C 365.3 3191.0 363.8 3193.2 363.8 3198.6 L 363.8 3199.6 C 363.8 3205.0 365.3 3207.2 368.4 3207.2 L 368.6 3207.2 C 371.7 3207.2 373.1 3205.0 373.1 3199.6 L 373.1 3198.6 C 373.1 3193.2 371.7 3191.0 368.6 3191.0 L 368.4 3191.0 Z M 368.4 3191.0 " fill="#1D1D1B"></path>
<path d="M 385.2 3189.5 L 385.2 3189.5 C 389.1 3189.5 391.2 3191.0 391.2 3195.5 L 391.2 3208.5 L 389.4 3208.5 L 389.4 3195.7 C 389.4 3192.1 388.0 3191.0 385.2 3191.0 C 382.3 3191.0 380.9 3192.1 380.9 3195.7 L 380.9 3208.5 L 379.1 3208.5 L 379.1 3195.5 C 379.1 3191.0 381.2 3189.5 385.2 3189.5 Z M 385.2 3189.5 " fill="#1D1D1B"></path>
<path d="M 397.6 3197.3 L 397.6 3197.3 L 401.0 3197.3 C 403.7 3197.3 406.8 3198.4 406.8 3202.7 L 406.8 3203.1 C 406.8 3207.5 403.7 3208.5 401.0 3208.5 L 395.8 3208.5 L 395.8 3189.7 L 397.6 3189.7 L 397.6 3197.3 Z M 397.6 3198.9 L 397.6 3198.9 L 397.6 3206.9 L 401.1 3206.9 C 402.7 3206.9 405.0 3206.3 405.0 3203.1 L 405.0 3202.8 C 405.0 3199.5 402.7 3198.9 401.1 3198.9 L 397.6 3198.9 Z M 397.6 3198.9 " fill="#1D1D1B"></path>
</g>
</g>

</svg>
