<?xml version="1.0" encoding="UTF-8" standalone="no"?>
<!-- Created with Inkscape (http://www.inkscape.org/) -->

<svg
   xmlns:dc="http://purl.org/dc/elements/1.1/"
   xmlns:cc="http://creativecommons.org/ns#"
   xmlns:rdf="http://www.w3.org/1999/02/22-rdf-syntax-ns#"
   xmlns:svg="http://www.w3.org/2000/svg"
   xmlns="http://www.w3.org/2000/svg"
   xmlns:sodipodi="http://sodipodi.sourceforge.net/DTD/sodipodi-0.dtd"
   xmlns:inkscape="http://www.inkscape.org/namespaces/inkscape"
   width="11in"
   height="6in"
   viewBox="0 0 279.4 152.4"
   version="1.1"
   id="svg5618"
   inkscape:version="0.92.2 5c3e80d, 2017-08-06"
   sodipodi:docname="neonion.svg">
  <defs
     id="defs5612" />
  <sodipodi:namedview
     id="base"
     pagecolor="#ffffff"
     bordercolor="#666666"
     borderopacity="1.0"
     inkscape:pageopacity="0.0"
     inkscape:pageshadow="2"
     inkscape:zoom="0.70000001"
     inkscape:cx="905.60178"
     inkscape:cy="384.18107"
     inkscape:document-units="mm"
     inkscape:current-layer="g5583"
     showgrid="false"
     units="in"
     height="6in"
     inkscape:window-width="1920"
     inkscape:window-height="1060"
     inkscape:window-x="1050"
     inkscape:window-y="20"
     inkscape:window-maximized="0"
     gridtolerance="1"
     objecttolerance="1"
     guidetolerance="1" />
  <metadata
     id="metadata5615">
    <rdf:RDF>
      <cc:Work
         rdf:about="">
        <dc:format>image/svg+xml</dc:format>
        <dc:type
           rdf:resource="http://purl.org/dc/dcmitype/StillImage" />
        <dc:title></dc:title>
      </cc:Work>
    </rdf:RDF>
  </metadata>
  <g
     inkscape:label="Layer 1"
     inkscape:groupmode="layer"
     id="layer1"
     transform="translate(0,-144.6)">
    <g
       transform="translate(-7.475995,72.610914)"
       id="g5583"
       inkscape:label="neonion logo">
      <path
         style="display:inline;fill:#fcfcfc;stroke-width:0.35277778"
         d="m 6.9486499,146.34638 v -46.0375 H 148.05976 289.17088 v 46.0375 46.0375 H 148.05976 6.9486499 Z"
         id="path5593"
         inkscape:connector-curvature="0"
         inkscape:label="weiss" />
      <path
         style="display:inline;fill:#ef9328;stroke-width:0.35277778"
         d="m 70.272263,187.53805 c -0.388056,-0.0978 -1.018692,-0.39692 -1.401414,-0.66464 -0.382718,-0.26772 -0.953822,-0.48676 -1.269118,-0.48676 -0.718061,0 -3.565659,-2.59054 -4.653393,-4.23333 -0.449647,-0.6791 -1.168523,-2.27779 -1.597501,-3.55265 l -0.779963,-2.31792 v -4.41126 -4.41126 l 0.847023,-2.49034 c 0.46586,-1.36969 1.140548,-2.94327 1.499305,-3.49685 1.054386,-1.62696 3.179872,-3.67446 4.612372,-4.44313 1.619084,-0.86879 5.405734,-1.78462 7.3288,-1.77252 2.318276,0.0146 5.794012,0.79597 7.444677,1.67363 0.851221,0.4526 2.154964,1.43121 2.897212,2.17469 1.47422,1.47667 2.886022,3.62264 2.889451,4.39203 0.0011,0.26814 0.268852,0.96378 0.594794,1.54586 l 0.592617,1.05833 0.02258,3.88056 0.02258,3.88055 -9.84848,0.0939 c -6.545922,0.0624 -10.006179,0.22476 -10.31875,0.48417 -0.25865,0.21466 -0.459723,0.72804 -0.446829,1.14084 0.01291,0.41281 0.46161,1.54431 0.997148,2.51445 0.635293,1.15085 1.57595,2.16236 2.70655,2.91041 l 1.732848,1.14653 h 1.345251 c 0.743095,0 1.950219,-0.34817 2.696764,-0.77783 0.743328,-0.4278 1.631421,-1.2976 1.973538,-1.93287 0.342117,-0.63527 0.934692,-1.25427 1.316838,-1.37556 0.666704,-0.21161 4.336412,0.0327 6.329825,0.42146 1.182222,0.23053 1.612974,1.36613 0.841537,2.21855 -0.308529,0.34093 -0.560962,0.8058 -0.560962,1.03306 0,0.22725 -0.922024,1.326 -2.048941,2.44166 l -2.04894,2.02848 -2.016203,0.79375 -2.016206,0.79375 -4.489715,-0.0409 c -2.469363,-0.0225 -4.807236,-0.12096 -5.195291,-0.21879 z m 10.596111,-18.67707 0.592342,-0.59234 -0.170243,-1.25974 c -0.09364,-0.69286 -0.542894,-1.81976 -0.998354,-2.50423 -0.455461,-0.68446 -1.359451,-1.59728 -2.008862,-2.02847 l -1.180751,-0.78399 H 75.14926 73.196018 l -1.355139,1.07329 c -0.778944,0.61694 -1.742832,1.8928 -2.266936,3.00067 l -0.9118,1.92738 0.360045,0.67275 c 0.198024,0.37002 0.560302,0.75343 0.80506,0.85204 0.244757,0.0986 2.695864,0.19181 5.446899,0.20713 l 5.001885,0.0278 0.592342,-0.59234 z m 30.149726,18.72354 c -0.29104,-0.11152 -1.02941,-0.42667 -1.64082,-0.70032 -0.6114,-0.27365 -1.38732,-0.49755 -1.72425,-0.49755 -0.83318,0 -3.97057,-2.61486 -5.56983,-4.64219 -0.80978,-1.02653 -1.42202,-2.27011 -1.60817,-3.26654 -0.16532,-0.88492 -0.48592,-1.83227 -0.712439,-2.1052 -0.259288,-0.31243 -0.417269,-2.00165 -0.42648,-4.56025 l 0.185812,-4.06399 0.383414,-1.22417 c 0.284383,-0.98734 0.675553,-1.70985 0.675553,-1.70985 0.39119,-0.97537 0.45924,-1.4816 0.74515,-1.71888 0.51983,-0.84025 0.41544,-0.6411 0.51983,-0.84025 0.53454,-1.01976 3.95489,-4.35866 5.67264,-5.26831 1.016,-0.53803 2.55504,-0.94993 4.14653,-1.10976 0,0 2.45192,-0.27384 2.55962,-0.4481 l 2.64312,-0.0276 c 0.3549,0.18993 1.54136,0.11786 2.84447,0.51544 1.44884,0.33215 2.47265,0.45989 2.9403,0.82257 0.66318,0.19181 1.55791,0.68587 1.55791,0.68587 0.33254,0.0659 1.42849,0.9675 2.58442,2.10917 1.30687,1.29075 2.5098,2.92505 3.18084,4.32152 l 1.07915,2.24577 0.23983,2.99861 c 0.27238,3.40563 -0.31654,9.05747 -1.02869,9.87233 -0.25698,0.29404 -0.56768,0.86532 -0.69045,1.26951 -0.24421,0.80406 -3.299,4.09951 -4.9639,5.35497 -0.5757,0.43412 -1.2107,0.79028 -1.41112,0.79148 -0.20041,0.001 -0.84064,0.26032 -1.42272,0.57583 l -1.05834,0.57365 -4.58611,0.12449 c -2.52236,0.0685 -4.82423,0.0332 -5.11528,-0.0783 z m 8.7407,-7.533 c 0.63579,-0.4769 1.53179,-1.50877 1.99112,-2.29306 1.12403,-1.91924 1.61803,-5.38038 1.2,-8.40761 -0.31616,-2.28947 -0.89874,-3.52562 -2.5608,-5.43364 -0.37064,-0.42548 -1.59222,-1.11704 -2.71462,-1.53679 l -2.04073,-0.76318 -1.95066,0.61356 -1.95066,0.61356 -1.5919,1.70187 c -0.87554,0.93602 -1.59695,1.98648 -1.60312,2.33434 -0.006,0.34786 -0.34452,0.70677 -0.62939,1.0834 l -0.41772,0.91865 v 2.85269 c 0,1.83567 0.17171,3.10077 0.48165,3.54854 0.2649,0.38272 0.6014,1.09274 0.74777,1.57781 0.14637,0.48506 1.05615,1.65123 2.02173,2.59147 l 1.7556,1.70953 3.05288,-0.12203 3.05287,-0.12203 z m 47.19295,7.46691 c -1.73615,-0.0566 -3.36334,-0.2745 -3.61598,-0.48417 l -0.45934,-0.38122 V 175.8077 164.96236 l -0.79071,-1.01771 c -0.43489,-0.55974 -1.10958,-1.29025 -1.49931,-1.62334 l -0.70859,-0.60562 -2.0128,-0.0118 -2.01281,-0.0117 -1.27429,0.86476 c -0.70086,0.47562 -1.59585,1.27355 -1.98887,1.77318 -0.39301,0.49964 -0.93788,1.97575 -1.21081,3.28025 l -0.49625,2.37184 v 8.04902 c 0,4.87376 -0.14407,8.31821 -0.36519,8.73138 l -0.36519,0.68237 h -3.32657 -3.32656 l -0.36903,-0.68954 c -0.24448,-0.45681 -0.33797,-5.72567 -0.277,-15.61042 l 0.092,-14.92087 3.61597,-0.10054 3.61597,-0.10054 0.005,1.51165 c 0.003,0.83141 0.15336,1.74561 0.3342,2.03157 l 0.32879,0.51992 0.9598,-0.8727 c 2.8899,-2.62765 3.67349,-3.16575 4.61003,-3.16575 0.44169,0 1.4427,-0.25594 2.22448,-0.56874 0.78558,-0.31433 1.85398,-0.48022 2.38839,-0.37084 0.53183,0.10884 1.90049,0.38412 3.04146,0.61173 1.15134,0.22967 2.77135,0.88414 3.64049,1.47072 0.86131,0.58129 1.71434,1.44702 1.89564,1.92385 0.18129,0.47683 0.56713,1.10448 0.85741,1.39477 l 0.5278,0.52779 0.007,2.70883 c 0.0151,5.92323 0.02,21.81426 0.007,22.69123 -0.008,0.51281 -0.21232,0.98906 -0.45486,1.05833 -0.24253,0.0693 -1.86145,0.0796 -3.5976,0.023 z m 18.11567,-0.29053 c -0.19204,-0.23156 -0.28848,-6.69197 -0.23435,-15.69861 l 0.092,-15.30513 3.49668,-0.10166 c 1.92317,-0.0559 3.64279,0.0445 3.82137,0.22304 0.37953,0.37952 0.36786,30.44095 -0.0119,30.7998 -0.13781,0.13019 -1.73259,0.29056 -3.54398,0.35637 -2.13211,0.0775 -3.40849,-0.0191 -3.61975,-0.27381 z m 27.25771,-0.4333 -2.58602,-0.93711 -2.00009,-1.80965 c -1.9194,-1.73663 -2.75666,-3.03524 -4.1722,-6.47109 l -0.65011,-1.57796 0.009,-4.41926 0.009,-4.41926 0.57253,-1.55947 c 0.33327,-0.58208 0.64034,-0.8136 0.64153,-1.12699 10e-4,-0.31338 0.31968,-0.97342 0.70773,-1.46675 0.38806,-0.49333 0.70556,-1.0361 0.70556,-1.20615 0,-0.17006 0.83344,-1.10902 1.85208,-2.08659 1.01865,-0.97756 2.67329,-2.18851 3.67699,-2.69098 1.06772,-0.53452 2.78967,-1.01691 4.15005,-1.16259 0.77769,-0.37082 1.64327,-0.38903 2.51744,-0.56016 1.19031,-0.24536 1.55408,-0.0335 2.77938,0.0139 0.11051,0.17881 1.15463,0.25439 2.49568,0.57085 1.32334,0.31228 2.42358,0.60498 3.13874,0.90962 0.76487,0.2649 1.10442,0.66388 1.42273,0.66388 0.83747,0 5.34749,4.70044 5.64196,5.88017 0.13715,0.54945 0.45404,1.23712 0.7042,1.52816 0.25017,0.29105 0.55598,1.43602 0.6796,2.54439 0.12361,1.10837 0.39786,2.39515 0.60944,2.85952 l -0.0496,1.2118 -0.12829,1.82856 c -0.30944,1.20784 -0.56261,2.65109 -0.56261,3.20723 0,0.95482 -0.68194,2.45679 -2.39813,5.28184 -0.41255,0.6791 -1.6668,1.9491 -2.78722,2.82223 -3.24072,2.52543 -5.43433,3.16847 -10.68965,3.13356 l -3.70416,-0.0246 -2.58603,-0.93711 z m 10.71749,-6.61344 c 0.76645,-0.50261 1.83268,-1.59873 2.36941,-2.43582 l 0.97587,-1.52199 0.023,-4.17876 c 0.0127,-2.29832 -0.14829,-4.57564 -0.35767,-5.06071 -0.53763,-1.24558 -1.1527,-2.15509 -1.96986,-2.91293 -1.02932,-0.95459 -4.09291,-2.37253 -5.11528,-2.36755 -1.2225,0.006 -3.85801,1.25237 -5.05543,2.39086 -0.54917,0.52214 -1.38261,1.75841 -1.85209,2.74727 l -0.85358,1.79793 v 3.11777 3.11777 l 0.76655,1.5835 c 0.81667,1.68701 1.56373,2.56887 3.25536,3.84274 l 1.05405,0.79375 h 2.68307 2.68307 z m 26.61715,7.26383 -3.35139,-0.17639 -0.17639,-15.16944 c -0.10164,-8.74113 -0.0418,-15.3613 0.14115,-15.62218 l 0.31754,-0.45273 3.56301,0.1 3.56302,0.1 0.17639,1.40769 c 0.11257,0.89835 0.37597,1.44562 0.72799,1.51251 0.30338,0.0576 0.95268,-0.25832 1.44288,-0.70214 1.88905,-1.71034 3.04305,-2.31755 4.88625,-2.57106 1.05081,-0.14452 2.18832,-0.43623 2.52781,-0.64824 l 0.61725,-0.38548 1.16072,0.40617 c 0.63839,0.2234 1.91574,0.5139 2.83856,0.64555 1.09734,0.15655 2.21041,0.64601 3.21713,1.41469 0.8466,0.64644 1.9169,1.7792 2.37842,2.51727 l 0.83914,1.34192 0.11439,11.97949 c 0.0629,6.58872 0.0163,12.50216 -0.1035,13.14097 l -0.2179,1.16149 h -3.49097 c -2.17078,0 -3.58221,-0.14762 -3.73222,-0.39035 -0.13269,-0.21469 -0.21363,-4.01154 -0.17987,-8.43743 0.0366,-4.80087 -0.11338,-9.29627 -0.37183,-11.14374 l -0.4332,-3.09666 -1.21269,-1.3423 -1.21268,-1.3423 h -2.08263 -2.08262 l -1.31591,0.83974 c -0.72375,0.46185 -1.6587,1.21591 -2.07767,1.67569 -0.45542,0.49977 -0.93667,1.75814 -1.19667,3.12902 -0.2392,1.26118 -0.53954,6.2618 -0.66742,11.1125 -0.12788,4.85069 -0.26406,8.84214 -0.30263,8.86989 -0.34032,0.24484 -1.4354,0.27689 -4.30346,0.12594 z M 20.533368,186.29846 c -0.113072,-0.63059 -0.159953,-7.65528 -0.10418,-15.61042 l 0.101407,-14.46388 h 4.056944 4.056945 l 0.176389,1.38353 c 0.09701,0.76095 0.354841,1.4422 0.572949,1.5139 0.218109,0.0717 0.853109,-0.2402 1.411111,-0.6931 1.987842,-1.61345 3.159486,-2.20801 5.247884,-2.66311 3.592962,-0.78296 4.403878,-0.86684 4.855554,-0.50222 0.239862,0.19363 1.150488,0.46727 2.023613,0.60809 1.024834,0.16529 2.126605,0.69426 3.108526,1.49242 0.836564,0.68 1.947471,1.89242 2.468686,2.69426 l 0.947667,1.45789 0.120693,12.10853 c 0.06638,6.6597 0.02402,12.49376 -0.09416,12.96459 l -0.214852,0.85605 H 45.79068 42.31282 l -0.360191,-0.44097 c -0.220045,-0.2694 -0.413885,-4.55882 -0.498191,-11.02431 l -0.138,-10.58333 -0.568954,-1.05834 c -0.312924,-0.58208 -1.054248,-1.41552 -1.647386,-1.85208 l -1.078433,-0.79375 h -2.087756 -2.087756 l -0.439169,0.52917 c -0.241543,0.29104 -0.639014,0.52916 -0.88327,0.52916 -0.723255,0 -2.244436,2.27788 -2.625867,3.93208 -0.194794,0.84479 -0.358052,5.45471 -0.362795,10.24426 -0.0047,4.78956 -0.163444,9.1155 -0.35267,9.6132 l -0.344046,0.90491 h -4.049691 -4.049691 z m 80.052402,-57.17712 c -0.10051,-0.26192 -0.13591,-1.73218 -0.0787,-3.26725 l 0.10406,-2.79104 h 14.11111 14.11112 v 3.175 3.175 l -14.03244,0.0923 -14.03243,0.0923 z m 103.53039,0.11532 c -0.0194,-0.19403 -0.0353,-1.54341 -0.0353,-2.99861 0,-1.45521 0.0159,-2.80459 0.0353,-2.99862 0.0229,-0.22853 4.86569,-0.35277 13.75041,-0.35277 h 13.71514 l 0.31644,0.44097 c 0.17404,0.24253 0.28431,1.6316 0.24505,3.0868 -0.0393,1.45521 -0.0829,2.7649 -0.0969,2.91042 -0.014,0.14552 -6.2961,0.26458 -13.96019,0.26458 -9.03112,0 -13.94714,-0.12414 -13.97,-0.35277 z M 20.468117,126.55522 c -0.119198,-0.31062 0.0048,-0.70507 0.275655,-0.87654 0.643072,-0.40719 27.858353,-0.40719 28.501425,0 0.270806,0.17147 0.39485,0.56592 0.275653,0.87654 l -0.216722,0.56477 H 34.994484 20.68484 Z m 121.989373,0.0864 -0.40365,-0.48637 0.48646,-0.40372 0.48645,-0.40372 13.89359,0.0923 13.89359,0.0923 v 0.70556 0.70555 l -13.97639,0.0922 -13.9764,0.0922 z m 103.43563,-0.0864 c -0.11919,-0.31062 0.005,-0.70507 0.27566,-0.87654 0.27081,-0.17148 6.61219,-0.31421 14.09196,-0.31718 l 13.59958,-0.005 0.39577,0.39577 c 0.21767,0.21767 0.31181,0.61454 0.2092,0.88194 l -0.18656,0.48618 H 260.19429 246.10985 Z M 100.60198,111.86235 c -0.10945,-0.43656 -0.15216,-2.14312 -0.0949,-3.79236 l 0.10408,-2.99861 h 35.10139 35.10139 l 0.10409,2.99861 c 0.0572,1.64924 0.0145,3.3558 -0.0949,3.79236 l -0.199,0.79375 h -34.91156 -34.91156 z m 103.54817,0.0858 c -0.21294,-0.39788 -0.33427,-2.05891 -0.277,-3.79236 l 0.10189,-3.0844 35.07951,-0.0899 35.0795,-0.0899 0.28107,0.44269 c 0.4112,0.64766 0.35384,5.84134 -0.0733,6.6395 l -0.36519,0.68236 h -34.72379 -34.72378 z"
         id="path5589"
         inkscape:connector-curvature="0"
         inkscape:label="orange"
         sodipodi:nodetypes="ccscccccccscccccccccscsccscscccsccccccccccccccccccccccccccsscccccccsccccccsssccccccccccccsccccccccccsccscccccccccsccccccccsscccccccccccsscccccccccccccccccccccccccccccccscscccscsccccccsccccccccccccccccccccccccccsccccccccccccccccccscccccccccccscccssccccccccccccscccccscccccccsscccccscccccccccccscscccsscccccccccccccccccccccccccsccccccccccccccccccacccccccc" />
      <path
         style="display:inline;fill:#5f5e5d;stroke-width:0.35277778"
         d="m 70.272263,187.53805 c -0.388056,-0.0978 -1.018692,-0.39692 -1.401414,-0.66464 -0.382718,-0.26772 -0.953822,-0.48676 -1.269118,-0.48676 -0.718061,0 -3.565659,-2.59054 -4.653393,-4.23333 -0.449647,-0.6791 -1.168523,-2.27779 -1.597501,-3.55265 l -0.779963,-2.31792 v -4.41126 -4.41126 l 0.847023,-2.49034 c 0.46586,-1.36969 1.140548,-2.94327 1.499305,-3.49685 1.054386,-1.62696 3.179872,-3.67446 4.612372,-4.44313 1.619084,-0.86879 5.405734,-1.78462 7.3288,-1.77252 2.318276,0.0146 5.794012,0.79597 7.444677,1.67363 0.851221,0.4526 2.154964,1.43121 2.897212,2.17469 1.47422,1.47667 2.886022,3.62264 2.889451,4.39203 0.0011,0.26814 0.268852,0.96378 0.594794,1.54586 l 0.592617,1.05833 0.02258,3.88056 0.02258,3.88055 -9.84848,0.0939 c -6.545922,0.0624 -10.006179,0.22476 -10.31875,0.48417 -0.25865,0.21466 -0.459723,0.72804 -0.446829,1.14084 0.01291,0.41281 0.46161,1.54431 0.997148,2.51445 0.635293,1.15085 1.57595,2.16236 2.70655,2.91041 l 1.732848,1.14653 h 1.345251 c 0.743095,0 1.950219,-0.34817 2.696764,-0.77783 0.743328,-0.4278 1.631421,-1.2976 1.973538,-1.93287 0.342117,-0.63527 0.934692,-1.25427 1.316838,-1.37556 0.666704,-0.21161 4.336412,0.0327 6.329825,0.42146 1.182222,0.23053 1.612974,1.36613 0.841537,2.21855 -0.308529,0.34093 -0.560962,0.8058 -0.560962,1.03306 0,0.22725 -0.922024,1.326 -2.048941,2.44166 l -2.04894,2.02848 -2.016203,0.79375 -2.016206,0.79375 -4.489715,-0.0409 c -2.469363,-0.0225 -4.807236,-0.12096 -5.195291,-0.21879 z m 10.596111,-18.67707 0.592342,-0.59234 -0.170243,-1.25974 c -0.09364,-0.69286 -0.542894,-1.81976 -0.998354,-2.50423 -0.455461,-0.68446 -1.359451,-1.59728 -2.008862,-2.02847 l -1.180751,-0.78399 H 75.14926 73.196018 l -1.355139,1.07329 c -0.778944,0.61694 -1.742832,1.8928 -2.266936,3.00067 l -0.9118,1.92738 0.360045,0.67275 c 0.198024,0.37002 0.560302,0.75343 0.80506,0.85204 0.244757,0.0986 2.695864,0.19181 5.446899,0.20713 l 5.001885,0.0278 0.592342,-0.59234 z m 86.083376,18.65745 c -1.73615,-0.0566 -3.36334,-0.2745 -3.61598,-0.48417 l -0.45934,-0.38122 V 175.8077 164.96236 l -0.79071,-1.01771 c -0.43489,-0.55974 -1.10958,-1.29025 -1.49931,-1.62334 l -0.70859,-0.60562 -2.0128,-0.0118 -2.01281,-0.0117 -1.27429,0.86476 c -0.70086,0.47562 -1.59585,1.27355 -1.98887,1.77318 -0.39301,0.49964 -0.93788,1.97575 -1.21081,3.28025 l -0.49625,2.37184 v 8.04902 c 0,4.87376 -0.14407,8.31821 -0.36519,8.73138 l -0.36519,0.68237 h -3.32657 -3.32656 l -0.36903,-0.68954 c -0.24448,-0.45681 -0.33797,-5.72567 -0.277,-15.61042 l 0.092,-14.92087 3.61597,-0.10054 3.61597,-0.10054 0.005,1.51165 c 0.003,0.83141 0.15336,1.74561 0.3342,2.03157 l 0.32879,0.51992 0.9598,-0.8727 c 2.8899,-2.62765 3.67349,-3.16575 4.61003,-3.16575 0.44169,0 1.4427,-0.25594 2.22448,-0.56874 0.78558,-0.31433 1.85398,-0.48022 2.38839,-0.37084 0.53183,0.10884 1.90049,0.38412 3.04146,0.61173 1.15134,0.22967 2.77135,0.88414 3.64049,1.47072 0.86131,0.58129 1.71434,1.44702 1.89564,1.92385 0.18129,0.47683 0.56713,1.10448 0.85741,1.39477 l 0.5278,0.52779 0.007,2.70883 c 0.0151,5.92323 0.02,21.81426 0.007,22.69123 -0.008,0.51281 -0.21232,0.98906 -0.45486,1.05833 -0.24253,0.0693 -1.86145,0.0796 -3.5976,0.023 z m 18.11567,-0.29053 c -0.19204,-0.23156 -0.28848,-6.69197 -0.23435,-15.69861 l 0.092,-15.30513 3.49668,-0.10166 c 1.92317,-0.0559 3.64279,0.0445 3.82137,0.22304 0.37953,0.37952 0.36786,30.44095 -0.0119,30.7998 -0.13781,0.13019 -1.73259,0.29056 -3.54398,0.35637 -2.13211,0.0775 -3.40849,-0.0191 -3.61975,-0.27381 z m 64.59235,0.21709 -3.35139,-0.17639 -0.17639,-15.16944 c -0.10164,-8.74113 -0.0418,-15.3613 0.14115,-15.62218 l 0.31754,-0.45273 3.56301,0.1 3.56302,0.1 0.17639,1.40769 c 0.11257,0.89835 0.37597,1.44562 0.72799,1.51251 0.30338,0.0576 0.95268,-0.25832 1.44288,-0.70214 1.88905,-1.71034 3.04305,-2.31755 4.88625,-2.57106 1.05081,-0.14452 2.18832,-0.43623 2.52781,-0.64824 l 0.61725,-0.38548 1.16072,0.40617 c 0.63839,0.2234 1.91574,0.5139 2.83856,0.64555 1.09734,0.15655 2.21041,0.64601 3.21713,1.41469 0.8466,0.64644 1.9169,1.7792 2.37842,2.51727 l 0.83914,1.34192 0.11439,11.97949 c 0.0629,6.58872 0.0163,12.50216 -0.1035,13.14097 l -0.2179,1.16149 h -3.49097 c -2.17078,0 -3.58221,-0.14762 -3.73222,-0.39035 -0.13269,-0.21469 -0.21363,-4.01154 -0.17987,-8.43743 0.0366,-4.80087 -0.11338,-9.29627 -0.37183,-11.14374 l -0.4332,-3.09666 -1.21269,-1.3423 -1.21268,-1.3423 h -2.08263 -2.08262 l -1.31591,0.83974 c -0.72375,0.46185 -1.6587,1.21591 -2.07767,1.67569 -0.45542,0.49977 -0.93667,1.75814 -1.19667,3.12902 -0.2392,1.26118 -0.53954,6.2618 -0.66742,11.1125 -0.12788,4.85069 -0.26406,8.84214 -0.30263,8.86989 -0.34032,0.24484 -1.4354,0.27689 -4.30346,0.12594 z M 20.533368,186.29846 c -0.113072,-0.63059 -0.159953,-7.65528 -0.10418,-15.61042 l 0.101407,-14.46388 h 4.056944 4.056945 l 0.176389,1.38353 c 0.09701,0.76095 0.354841,1.4422 0.572949,1.5139 0.218109,0.0717 0.853109,-0.2402 1.411111,-0.6931 1.987842,-1.61345 3.159486,-2.20801 5.247884,-2.66311 3.592962,-0.78296 4.403878,-0.86684 4.855554,-0.50222 0.239862,0.19363 1.150488,0.46727 2.023613,0.60809 1.024834,0.16529 2.126605,0.69426 3.108526,1.49242 0.836564,0.68 1.947471,1.89242 2.468686,2.69426 l 0.947667,1.45789 0.120693,12.10853 c 0.06638,6.6597 0.02402,12.49376 -0.09416,12.96459 l -0.214852,0.85605 H 45.79068 42.31282 l -0.360191,-0.44097 c -0.220045,-0.2694 -0.413885,-4.55882 -0.498191,-11.02431 l -0.138,-10.58333 -0.568954,-1.05834 c -0.312924,-0.58208 -1.054248,-1.41552 -1.647386,-1.85208 l -1.078433,-0.79375 h -2.087756 -2.087756 l -0.439169,0.52917 c -0.241543,0.29104 -0.639014,0.52916 -0.88327,0.52916 -0.723255,0 -2.244436,2.27788 -2.625867,3.93208 -0.194794,0.84479 -0.358052,5.45471 -0.362795,10.24426 -0.0047,4.78956 -0.163444,9.1155 -0.35267,9.6132 l -0.344046,0.90491 h -4.049691 -4.049691 z m -0.06525,-59.74324 c -0.119198,-0.31062 0.0048,-0.70507 0.275655,-0.87654 0.643072,-0.40719 27.858353,-0.40719 28.501425,0 0.270806,0.17147 0.39485,0.56592 0.275653,0.87654 l -0.216722,0.56477 H 34.994484 20.68484 Z m 121.989372,0.0864 -0.40365,-0.48637 0.48646,-0.40372 0.48645,-0.40372 13.89359,0.0923 13.89359,0.0923 v 0.70556 0.70555 l -13.97639,0.0922 -13.9764,0.0922 z m 103.43563,-0.0864 c -0.11919,-0.31062 0.005,-0.70507 0.27566,-0.87654 0.27081,-0.17148 6.61219,-0.31421 14.09196,-0.31718 l 13.59958,-0.005 0.39577,0.39577 c 0.21767,0.21767 0.31181,0.61454 0.2092,0.88194 l -0.18656,0.48618 H 260.19429 246.10985 Z M 100.60198,111.86235 c -0.10945,-0.43656 -0.15216,-2.14312 -0.0949,-3.79236 l 0.10408,-2.99861 h 35.10139 35.10139 l 0.10409,2.99861 c 0.0572,1.64924 0.0145,3.3558 -0.0949,3.79236 l -0.199,0.79375 h -34.91156 -34.91156 z m 103.54817,0.0858 c -0.21294,-0.39788 -0.33427,-2.05891 -0.277,-3.79236 l 0.10189,-3.0844 35.07951,-0.0899 35.0795,-0.0899 0.28107,0.44269 c 0.4112,0.64766 0.35384,5.84134 -0.0733,6.6395 l -0.36519,0.68236 h -34.72379 -34.72378 z"
         id="path5587"
         inkscape:connector-curvature="0"
         inkscape:label="grau" />
      <path
         style="display:inline;fill:#000000;fill-opacity:1;stroke:#000000;stroke-width:1.85300004;stroke-miterlimit:4;stroke-dasharray:none;stroke-opacity:1"
         d="m 71.683374,187.21401 c -2.0329,-0.54978 -4.352562,-1.45811 -5.291667,-2.07211 -1.8672,-1.22081 -4.033076,-4.30177 -4.315591,-6.13893 -0.106514,-0.69265 -0.409395,-1.68805 -0.673064,-2.21199 l -0.345766,-1.75443 -0.122415,-3.36085 0.345307,-2.82631 0.183858,-2.02113 c 0.284871,-0.37664 0.517948,-1.18866 0.517948,-1.80451 0,-0.61585 0.3175,-1.52336 0.705556,-2.01669 0.388055,-0.49333 0.705555,-1.07089 0.705555,-1.28347 4e-6,-0.60505 3.334424,-3.91193 3.944518,-3.91193 0.300546,0 0.925044,-0.29346 1.387772,-0.65212 0.482487,-0.37398 1.819352,-0.77197 3.134381,-0.93311 1.26118,-0.15454 2.68993,-0.27439 3.175,-0.26634 2.215028,0.0368 5.517268,0.57281 5.997222,0.97353 0.291042,0.24299 0.926042,0.56042 1.411111,0.7054 0.990054,0.29591 3.195455,2.40669 4.457196,4.26597 0.45896,0.67632 0.834471,1.60215 0.834471,2.05742 0,0.45526 0.44765,0.8516 0.831444,1.69741 l 0.564173,2.206 0.0078,2.91042 0.0078,2.91042 H 78.922067 68.698232 l -0.221936,0.88426 c -0.271438,1.08149 0.116205,3.34907 0.572523,3.34907 0.182633,0 0.554489,0.53234 0.826346,1.18299 0.290263,0.6947 1.173202,1.64119 2.139086,2.29306 l 1.644798,1.11006 h 1.898132 1.898131 l 1.217683,-0.79375 c 0.669724,-0.43656 1.501504,-1.31344 1.848397,-1.94863 0.346897,-0.63518 1.008066,-1.24958 1.46927,-1.36534 0.928515,-0.23304 3.186335,0.0487 4.950379,0.61763 l 1.146528,0.36981 v 0.80385 c 0,0.44212 -0.538586,1.50922 -1.196862,2.37134 -1.299654,1.70211 -3.417619,3.47157 -4.159462,3.47504 -0.255481,0.001 -0.940759,0.26157 -1.522843,0.57862 l -1.058333,0.57643 -3.880556,0.10686 c -2.134305,0.0588 -4.198055,0.021 -4.586111,-0.0839 z m 4.976474,-17.40791 h 4.742378 l 0.309075,-0.81293 c 0.190063,-0.4999 0.152742,-1.48985 -0.09693,-2.57094 -0.380397,-1.64714 -0.804154,-2.39887 -1.930132,-3.424 -0.256188,-0.23324 -0.728031,-0.70189 -1.048541,-1.04144 L 78.05296,161.33943 H 75.501195 72.94943 l -1.338584,0.9064 c -1.468723,0.99452 -3.278649,4.01092 -3.27878,5.46437 -4.6e-5,0.49649 0.198356,1.15995 0.440891,1.47435 0.45236,0.5864 1.838364,0.97421 2.674687,0.74841 0.258403,-0.0698 2.603895,-0.12686 5.212204,-0.12686 z m -55.901636,16.78282 c -0.175174,-0.32679 -0.05123,-7.46537 -0.05123,-15.53684 v -14.6754 l 3.792361,0.10012 3.792361,0.10013 v 1.51157 c 0,0.92753 0.194261,1.63187 0.502769,1.8229 l 0.50277,0.31134 1.172925,-0.89464 c 0.645109,-0.49204 1.172925,-1.01901 1.172925,-1.17103 0,-0.15201 0.436563,-0.44838 0.970139,-0.65859 0.533576,-0.2102 1.208264,-0.52657 1.499306,-0.70304 0.291041,-0.17647 1.657025,-0.4918 3.035519,-0.70074 1.663886,-0.25219 2.908195,-0.26463 3.701838,-0.037 0.657517,0.18858 1.639524,0.34286 2.182237,0.34286 0.953513,0 2.292668,0.77866 4.013225,2.33351 0.454032,0.41031 0.825514,0.9703 0.825514,1.24442 0,0.27413 0.478265,0.55684 0.817813,1.03657 l 0.41691,1.20634 0.1218,11.23084 c 0.06699,6.17697 0.02547,11.74435 -0.09228,12.37196 l -0.214076,1.14112 -3.082724,-0.15851 c -1.712224,-0.088 -3.3984,0.20025 -3.542358,-0.0194 -0.14255,-0.21747 -0.06116,-4.68629 -0.06413,-9.27738 l -0.0054,-8.34744 -0.522166,-2.76506 -0.522165,-2.76506 -1.236543,-1.14653 -1.236543,-1.14653 H 35.999394 33.28978 l -0.656457,0.61736 c -1.8409,1.73127 -2.616851,2.74655 -3.251169,4.25395 l -0.696459,1.65508 -0.196996,9.48658 -0.196996,9.48659 -3.473863,0.0384 -1.937064,-0.29569 z m 123.050578,-0.008 c -0.2011,-0.2011 -0.33514,-6.30327 -0.33514,-15.25764 v -14.9225 h 3.15657 3.15656 l 0.10663,1.84878 0.10663,1.84878 0.64233,0.12218 c 0.39238,0.0746 1.19227,-0.43886 2.05563,-1.31962 0.77731,-0.79298 1.61976,-1.44178 1.87211,-1.44178 0.25235,0 0.63811,-0.21603 0.85724,-0.48007 0.21913,-0.26403 1.31013,-0.60003 2.42444,-0.74666 2.53908,-0.33411 3.28001,-0.33322 5.88385,0.007 2.79965,0.36582 4.83651,1.7517 6.01086,4.08978 l 0.89104,1.77402 v 12.45559 12.45559 l -3.0868,-0.16499 c -2.41426,-0.305 -1.48332,0.28241 -3.90193,-0.0395 l -0.0668,-9.9196 c -0.0376,-5.58455 -0.16109,-10.29135 -0.38976,-11.38816 -0.26077,-1.25074 -0.75068,-2.2489 -1.48032,-3.01597 l -1.09055,-1.14653 h -2.75302 -2.75302 l -0.7087,0.61736 c -2.26756,1.9753 -3.17186,3.05286 -3.17186,3.77955 0,0.44472 -0.23812,1.37849 -0.52916,2.07505 l -0.52917,1.26647 -0.005,8.56619 c -0.003,4.71141 -0.26458,8.91897 -0.26458,8.91897 l -6.09765,0.0176 z m 41.43955,0.18815 c -0.0808,-0.0808 -0.14691,-6.95253 -0.14691,-15.27041 V 156.375 l 3.37461,0.10097 3.37462,0.10096 -0.0342,14.80996 c -0.0188,8.14547 1.07856,14.95912 -0.34602,15.18864 -1.36727,0.22028 -3.19357,0.29267 -3.19357,0.29267 l -1.69223,-0.0326 z m 64.53168,0.0621 -2.52558,-0.1211 -0.1976,-0.51494 c -0.10868,-0.28322 -0.21304,-7.06312 -0.23191,-15.06645 l -0.0343,-14.5515 3.35599,-0.10074 3.35598,-0.10074 0.10707,1.86133 0.10706,1.86132 0.52917,0.0956 c 0.29104,0.0525 1.0724,-0.41609 1.73635,-1.04141 2.11327,-1.99031 3.36337,-2.64568 5.5283,-2.89821 2.87161,-0.33496 3.19139,-0.33624 5.72791,-0.0229 1.22807,0.15169 2.44704,0.49 2.70883,0.75179 0.2618,0.26179 0.61638,0.47598 0.78796,0.47598 0.55023,0 2.12226,1.89598 2.77877,3.35139 l 0.63653,1.41111 0.12708,11.71609 c 0.0718,6.62441 -0.012,11.96463 -0.19298,12.28799 l -0.32005,0.57191 -2.71543,0.03 c -1.49349,0.0165 -2.86108,-0.11569 -3.03909,-0.2937 -0.17801,-0.17801 -0.38847,-4.37171 -0.4677,-9.31933 -0.0946,-5.90737 -0.31255,-9.74128 -0.63485,-11.16746 l -0.49079,-2.17177 -1.15508,-1.26781 -1.15508,-1.26781 h -2.75126 -2.75126 l -1.77411,1.6757 -1.7741,1.67569 -0.776,3.0816 -0.776,3.08159 0.0376,7.32535 c 0.0207,4.02894 0.0289,7.68254 0.0182,8.1191 l -0.28657,0.19239 -0.35009,0.53126 c -0.33955,-0.0385 -1.75387,-0.12459 -3.14294,-0.19119 z m -228.986185,-60.50065 0.148334,-0.445 h 13.993519 c 9.035029,0 14.024771,0.125 14.081713,0.35278 0.05742,0.22967 -4.877294,0.38495 -14.141852,0.445 l -14.230048,0.0922 z m 122.219035,0.21135 c -0.12407,-0.12408 -0.038,-0.52917 -0.038,-0.52917 0,0 6.3695,-0.30357 13.92513,-0.30357 h 13.73751 v 0.52917 0.52916 h -13.69953 c -7.53475,0 -13.92514,-0.092 -13.92514,-0.092 z m 103.29649,-0.1256 c -0.12215,-0.19764 -0.0132,-0.43952 0.24222,-0.53752 0.25537,-0.098 6.57574,-0.13656 14.04528,-0.0857 8.75714,0.0596 13.58096,0.21777 13.58096,0.44525 0,0.49178 -27.56572,0.66782 -27.86846,0.17797 z M 101.02445,111.71708 c -0.1303,-0.1303 -0.23691,-1.6392 -0.23691,-3.35311 v -3.1162 h 34.93824 34.93824 l -0.10143,3.26319 -0.10144,3.2632 -34.5999,0.0899 c -19.02994,0.0495 -34.70651,-0.0167 -34.8368,-0.14699 z m 103.45572,-0.20751 c -0.0132,-0.24253 -0.0472,-1.71097 -0.0756,-3.26319 l -0.0515,-2.82222 h 34.91236 34.91235 l 0.10616,2.46206 c 0.0584,1.35414 0.0157,2.82258 -0.0949,3.2632 l -0.20107,0.80113 H 239.2461 204.50421 l -0.0241,-0.44098 z"
         id="path5585"
         inkscape:connector-curvature="0"
         inkscape:label="schwarz"
         sodipodi:nodetypes="ccscccccsccsccccccsccccccssccccccccccssccccccsccscccccscccscscccscccsccccscsccsccccsccccccccccccccccscccccccscccscccccsccccccscccccccsccccsccccccscccccccsccscccccsssccccccccccccccccccsccccccscccscccccsccscccccccccccccccccccc" />
    </g>
  </g>
</svg>
